<svg width="75" height="75" viewBox="0 0 75 75" fill="none" xmlns="http://www.w3.org/2000/svg">
<rect y="25.8751" width="74.85" height="2.77233" fill="#E9A382"/>
<rect y="20.3304" width="74.85" height="2.77233" fill="#E9A382"/>
<rect y="13.8617" width="74.85" height="2.77233" fill="#E9A382"/>
<rect y="8.31696" width="74.85" height="2.77233" fill="#E9A382"/>
<rect y="3.69647" width="74.85" height="1.84822" fill="#E9A382"/>
<rect width="74.85" height="3.69644" fill="#09040A"/>
<rect y="31.4197" width="74.85" height="2.77233" fill="#E9A382"/>
<rect y="43.4332" width="74.85" height="2.77233" fill="#E9A382"/>
<rect y="55.4465" width="74.85" height="2.77233" fill="#E9A382"/>
<rect y="66.5358" width="74.85" height="2.77233" fill="#E9A382"/>
<rect y="37.8885" width="74.85" height="2.77233" fill="#E9A382"/>
<rect y="48.9778" width="74.85" height="2.77233" fill="#E9A382"/>
<rect y="60.9912" width="74.85" height="2.77233" fill="#E9A382"/>
<rect y="73.0046" width="74.85" height="1.84822" fill="#E9A382"/>
<rect y="28.6474" width="74.85" height="2.77233" fill="#A46F69"/>
<rect y="23.1027" width="74.85" height="2.77233" fill="#A46F69"/>
<rect y="16.634" width="74.85" height="3.69644" fill="#A46F69"/>
<rect y="11.0893" width="74.85" height="2.77233" fill="#A46F69"/>
<rect y="5.54462" width="74.85" height="2.77233" fill="#A46F69"/>
<rect y="40.6608" width="74.85" height="2.77233" fill="#A46F69"/>
<rect y="51.7501" width="74.85" height="3.69644" fill="#A46F69"/>
<rect y="63.7635" width="74.85" height="2.77233" fill="#A46F69"/>
<rect y="34.192" width="74.85" height="3.69644" fill="#A46F69"/>
<rect y="46.2054" width="74.85" height="2.77233" fill="#A46F69"/>
<rect y="58.2189" width="74.85" height="2.77233" fill="#A46F69"/>
<rect y="69.3082" width="74.85" height="3.69644" fill="#A46F69"/>
</svg>
